<?xml version="1.0" standalone="no"?><!DOCTYPE svg PUBLIC "-//W3C//DTD SVG 1.1//EN" "http://www.w3.org/Graphics/SVG/1.1/DTD/svg11.dtd"><svg class="icon" width="32px" height="32.00px" viewBox="0 0 1024 1024" version="1.1" xmlns="http://www.w3.org/2000/svg"><path fill="#000000" d="M860 277v-27c0-80.2-65.3-145.4-145.6-145.4H249.1C168.5 104.6 103 169.8 103 250v524.4c0 80.2 61.5 145.4 137.1 145.4h541c75.6 0 137.1-65.2 137.1-145.4V395.6c0.1-49-23.1-92.2-58.2-118.6z m0 497.4c0 48-35.3 87.2-78.8 87.2H240.1c-43.5 0-78.8-39.1-78.8-87.2V250c0-48 39.4-87.2 87.9-87.2h465.3c48.2 0 87.3 39.1 87.3 87.2v2.4c-6.8-1.1-13.6-2.2-20.6-2.2H306.8c-16.1 0-29.1 13-29.1 29.1s13 29.1 29.1 29.1h474.3c43.5 0 78.8 39.1 78.8 87.2l0.1 378.8z m0 0"  /><path fill="#000000" d="M656.2 628.7c16.1 0 29.1-13 29.1-29.1s-13-29.1-29.1-29.1H539.8v-21.4c9-3.2 17.5-7.7 25.3-14l109.3-87.5c12.6-10.1 14.6-28.4 4.5-40.9-10-12.5-28.2-14.4-40.9-4.5l-109.3 87.4c-10.5 8.4-25.6 8.4-36.1 0l-109.3-87.5c-12.5-10-30.9-8-40.9 4.5-10 12.6-8 30.9 4.5 40.9L456.2 535c7.8 6.3 16.4 10.8 25.3 14v21.4H365.1c-16.1 0-29.1 13-29.1 29.1s13 29.1 29.1 29.1h116.5v58.2H365.1c-16.1 0-29.1 13-29.1 29.1s13 29.1 29.1 29.1h116.5v29.1c0 16.1 13 29.1 29.1 29.1s29.1-13 29.1-29.1V745h116.5c16.1 0 29.1-13 29.1-29.1s-13-29.1-29.1-29.1H539.8v-58.2h116.4z m0 0"  /></svg>