<?xml version="1.0" standalone="no"?><!DOCTYPE svg PUBLIC "-//W3C//DTD SVG 1.1//EN" "http://www.w3.org/Graphics/SVG/1.1/DTD/svg11.dtd"><svg class="icon" width="32px" height="32.00px" viewBox="0 0 1024 1024" version="1.1" xmlns="http://www.w3.org/2000/svg"><path fill="#000000" d="M950.293813 560.688909l-397.646556 396.751163c-48.820915 48.685839-127.956254 48.685839-176.753633 0L66.612629 648.852878c-48.798403-48.685839-48.798403-127.641075 0-176.328961l397.646555-396.738883c30.380938-31.804357 36.20662-45.740764 68.089771-45.740764h403.941936c31.860638 0 57.694003 25.777083 57.694003 57.58144v403.012773c0 31.80538-18.104333 44.508703-43.691081 70.050426z m-839.497893 44.093241l309.280996 308.564681c24.421202 24.353664 63.98836 24.353664 88.364537 0l43.735083-43.600007-396.726603-397.681348-44.654013 44.541449c-24.39869 24.343431-24.39869 63.821561 0 88.175225zM936.290891 116.406197c0-15.897062-12.927427-28.779464-28.857235-28.779464H561.183677c-15.929808 0-38.559201 18.092054-52.742224 32.241308L199.654714 427.972235l397.153322 397.232116 309.303508-308.597426c15.549138-15.526625 30.179346-38.84982 30.179347-54.758138V116.406197zM618.921683 406.40708c-48.820915-48.697095-48.820915-127.642099 0-176.328961 48.799426-48.697095 127.911228-48.697095 176.732144 0 48.798403 48.686862 48.798403 127.630842 0 176.328961-48.820915 48.686862-127.932718 48.686862-176.732144 0z m132.548852-132.25721c-24.399713-24.332175-63.96687-24.332175-88.366583 0-24.421202 24.354688-24.421202 63.820538 0 88.175226 24.399713 24.343431 63.96687 24.343431 88.366583 0 24.399713-24.354688 24.399713-63.820538 0-88.175226z" /></svg>