<?xml version="1.0" standalone="no"?><!DOCTYPE svg PUBLIC "-//W3C//DTD SVG 1.1//EN" "http://www.w3.org/Graphics/SVG/1.1/DTD/svg11.dtd"><svg class="icon" width="32px" height="32.00px" viewBox="0 0 1024 1024" version="1.1" xmlns="http://www.w3.org/2000/svg"><path fill="#000000" d="M906.53 418.51c26.8-28.36 41.76-59.83 41.76-93.49 0-120.6-195.4-218.14-436.29-218.14S75.7 204.42 75.7 325.02c0 33.66 14.95 65.13 41.76 93.49-26.8 28.36-41.75 59.83-41.75 93.49s14.95 65.13 41.76 93.49c-26.8 28.36-41.76 59.83-41.76 93.49 0 120.6 195.4 218.14 436.29 218.14s436.29-97.54 436.29-218.14c0-33.66-14.95-65.13-41.76-93.49 26.8-28.36 41.76-59.83 41.76-93.49s-14.96-65.13-41.76-93.49z m-768.5-93.49c0-65.13 142.42-155.82 373.96-155.82s373.96 90.69 373.96 155.82c0 16.82-9.66 35.53-28.05 53.91-13.4 13.72-32.1 27.11-54.85 39.58-64.51 35.22-164.55 62.33-291.07 62.33s-226.56-27.11-291.07-62.33c-22.75-12.47-41.45-25.86-54.85-39.58-18.37-18.38-28.03-37.09-28.03-53.91z m747.93 373.96c0 65.13-142.42 155.82-373.96 155.82s-373.96-90.68-373.96-155.82c0-16.83 9.66-35.53 28.05-53.91 79.78 51.73 205.05 85.07 345.92 85.07s266.14-33.35 345.92-85.07c18.37 18.38 28.03 37.09 28.03 53.91z m-82.89-93.49c-64.51 35.22-164.55 62.33-291.07 62.33s-226.56-27.11-291.07-62.33c-22.75-12.47-41.45-25.86-54.85-39.58-18.39-18.38-28.05-37.09-28.05-53.91 0-16.83 9.66-35.53 28.05-53.91 33.03 21.5 73.86 39.58 120.6 53.91 66.07 19.63 143.04 31.16 225.31 31.16S671.24 531.63 737.31 512c46.75-14.34 87.57-32.41 120.6-53.91 18.39 18.39 28.05 37.09 28.05 53.91 0 16.82-9.66 35.53-28.05 53.91-13.39 13.72-32.1 27.11-54.84 39.58z"  /></svg>