<?xml version="1.0" standalone="no"?><!DOCTYPE svg PUBLIC "-//W3C//DTD SVG 1.1//EN" "http://www.w3.org/Graphics/SVG/1.1/DTD/svg11.dtd"><svg class="icon" width="32px" height="32.00px" viewBox="0 0 1024 1024" version="1.1" xmlns="http://www.w3.org/2000/svg"><path fill="#000000" d="M288.01 448.002c-35.344 0-63.996-28.652-63.996-63.996s28.653-63.997 63.997-63.997c35.345 0 63.996 28.653 63.996 63.997s-28.651 63.996-63.996 63.996z m639.97 302.17L668.992 492.093 372.528 759.74c-12.63 11.403-31.975 10.926-44.027-1.084L220.383 650.927 96.02 751.285v80.7c0 17.672 14.326 31.999 31.999 31.999H895.98c17.673 0 32-14.327 32-32v-81.813z m0-90.347v-467.81c0-17.672-14.326-31.999-31.999-31.999H128.02c-17.673 0-32 14.327-32 32v477.033l84.174-67.926c25.424-20.516 62.219-18.59 85.361 4.47l86.617 86.306 273.935-247.308c25.261-22.806 63.951-21.852 88.058 2.17L927.98 659.825zM32.023 736.274a45.762 45.762 0 0 1 0-0.53V192.015c0-53.016 42.98-95.995 95.996-95.995H895.98c53.017 0 95.996 42.979 95.996 95.995v639.97c0 53.016-42.98 95.995-95.996 95.995H128.02c-53.017 0-95.996-42.979-95.996-95.995v-95.711z" /></svg>