<?xml version="1.0" standalone="no"?><!DOCTYPE svg PUBLIC "-//W3C//DTD SVG 1.1//EN" "http://www.w3.org/Graphics/SVG/1.1/DTD/svg11.dtd"><svg class="icon" width="32px" height="32.00px" viewBox="0 0 1024 1024" version="1.1" xmlns="http://www.w3.org/2000/svg"><path fill="#000000" d="M952.786 398.034c0-0.517-0.169-0.86-0.169-1.377a26.941 26.941 0 0 0-1.551-5.335l-75.172-186.809c-13.077-38.702-50.227-62.438-93.922-62.612h-526.53c-44.206 0-78.613 23.567-90.993 60.718L83.77 393.216c-0.344 1.203-0.86 2.755-1.204 4.475a177.956 177.956 0 0 0-8.77 55.045 175.718 175.718 0 0 0 93.23 155.325c23.567 12.56 51.43 18.919 82.739 18.919 52.464-0.17 101.145-23.22 134.344-62.782 33.029 39.22 81.192 62.1 133.652 62.439 51.948-0.338 100.116-23.388 132.972-62.613 33.198 39.563 81.879 62.439 134.686 62.439 31.995-0.17 60.206-6.882 84.117-19.958a176.082 176.082 0 0 0 91.684-154.64c0.169-18.396-2.93-36.976-8.433-53.831z m-113.7 152.576c-14.449 7.91-32.512 12.042-53.668 12.042-39.045 0-74.48-19.778-95.293-53.325-1.552-3.097-3.953-8.427-8.602-13.42-5.33-5.851-14.797-12.902-30.617-12.902-12.729 0-24.249 5.161-30.792 13.246-4.3 4.818-6.712 9.636-8.428 13.245-20.47 33.204-55.73 53.151-93.92 53.325-38.703-0.169-73.964-20.121-94.608-53.494-1.378-2.923-3.784-7.915-7.573-12.042-14.965-17.89-48.68-17.029-61.752-1.377-4.818 5.335-7.398 10.665-8.945 14.28-20.644 33.198-56.248 52.981-94.955 53.15-20.639 0-38.36-3.958-52.634-11.525-36.639-19.435-59.346-57.451-59.346-98.908 0-12.211 2.064-24.597 6.19-36.639 0.343-0.86 0.517-1.894 0.686-2.754l79.478-187.838c1.552-4.813 6.538-19.435 31.309-19.435h526.71c10.148 0.686 27.694 2.406 33.889 20.644l74.312 185.257c0.338 1.377 0.686 2.58 1.029 3.614a111.933 111.933 0 0 1 6.19 36.47 113.377 113.377 0 0 1-58.66 98.386z m23.91 102.518a31.939 31.939 0 0 0-31.994 31.99V859.72a18.053 18.053 0 0 1-18.059 18.058l-602.05 0.338c-9.98 0-18.064-8.08-18.064-17.89l-0.174-171.489c0-17.72-14.448-32-31.995-32-17.715 0-31.994 14.449-31.994 32l0.174 171.49c0 45.07 36.807 81.879 82.048 81.879l602.22-0.338c45.07-0.17 81.878-36.808 81.878-82.048V685.117c0.005-17.536-14.274-31.99-31.99-31.99zM768.041 429.169H255.959c-17.715 0-31.995-14.28-31.995-31.995s14.28-31.995 31.995-31.995h511.913a31.933 31.933 0 0 1 31.995 31.995c0.174 17.715-14.275 31.995-31.826 31.995z" /></svg>