<?xml version="1.0" standalone="no"?><!DOCTYPE svg PUBLIC "-//W3C//DTD SVG 1.1//EN" "http://www.w3.org/Graphics/SVG/1.1/DTD/svg11.dtd"><svg class="icon" width="32px" height="32.00px" viewBox="0 0 1024 1024" version="1.1" xmlns="http://www.w3.org/2000/svg"><path fill="#000000" d="M967.3 424.4 572.6 112.5c-34-26.9-87.3-26.9-121.2 0L56.8 424.4c-13.5 10.7-15.8 30.3-5.1 43.7 10.6 13.5 29.8 15.8 43.3 5.1l12.3-10.1 0 377.1c0 53.5 56.3 93.4 105.9 93.4l622.7 0c49 0 81-37.5 81-93.4L916.9 464.6l11.4 8.6c5.7 4.5 12.8 6.7 19.5 6.7 9.2 0 18.4-4 24.5-11.8C982.9 454.6 980.8 435.1 967.3 424.4L967.3 424.4zM480.9 871.4 480.9 698.8c0-8.6 15.6-12.9 31.1-12.9 15.6 0 31.1 4.3 31.1 12.9l0 172.6L480.9 871.4 480.9 871.4zM854.5 840.3c0 20.6-5.7 31.1-18.7 31.1L606.1 871.4c0-0.5-0.6-0.8-0.6-1.3L605.5 698.8c0-36.2-29.2-75.2-93.4-75.2-64.2 0-93.4 39-93.4 75.2l0 171.3c0 0.5 0.8 0.8 0.8 1.3L213.1 871.4c-19.5 0-43.6-16.9-43.6-31.1l0-426.4 320.1-252.6c11.5-9.1 32.2-9.1 43.7 0l321.2 254.1L854.5 840.3 854.5 840.3z" /></svg>