<?xml version="1.0" standalone="no"?><!DOCTYPE svg PUBLIC "-//W3C//DTD SVG 1.1//EN" "http://www.w3.org/Graphics/SVG/1.1/DTD/svg11.dtd"><svg t="1575454277412" class="icon" viewBox="0 0 1024 1024" version="1.1" xmlns="http://www.w3.org/2000/svg" p-id="115638" xmlns:xlink="http://www.w3.org/1999/xlink" width="32" height="32"><defs><style type="text/css"></style></defs><path d="M512 661.333333c-83.2 0-149.333333-66.133333-149.333333-149.333333s66.133333-149.333333 149.333333-149.333333 149.333333 66.133333 149.333333 149.333333-66.133333 149.333333-149.333333 149.333333z m0-234.666666c-46.933333 0-85.333333 38.4-85.333333 85.333333s38.4 85.333333 85.333333 85.333333 85.333333-38.4 85.333333-85.333333-38.4-85.333333-85.333333-85.333333z" p-id="115639"></path><path d="M629.333333 896c-17.066667 0-34.133333-8.533333-44.8-25.6-14.933333-25.6-42.666667-40.533333-72.533333-40.533333s-55.466667 14.933333-72.533333 40.533333c-12.8 21.333333-38.4 29.866667-61.866667 21.333333-46.933333-17.066667-91.733333-42.666667-130.133333-74.666666-19.2-14.933333-23.466667-42.666667-12.8-64 14.933333-25.6 12.8-57.6-2.133334-83.2-14.933333-25.6-40.533333-40.533333-70.4-42.666667-23.466667 0-44.8-19.2-49.066666-42.666667-6.4-36.266667-8.533333-74.666667-4.266667-115.2 2.133333-10.666667 2.133333-21.333333 4.266667-32 4.266667-23.466667 25.6-42.666667 49.066666-42.666666 29.866667 0 55.466667-17.066667 70.4-42.666667 14.933333-25.6 14.933333-55.466667 2.133334-83.2-10.666667-21.333333-6.4-49.066667 12.8-64 38.4-32 81.066667-57.6 130.133333-74.666667 23.466667-8.533333 49.066667 0 61.866667 21.333334 17.066667 25.6 42.666667 40.533333 72.533333 40.533333s55.466667-14.933333 72.533333-40.533333c12.8-21.333333 38.4-29.866667 61.866667-21.333334 46.933333 17.066667 91.733333 42.666667 130.133333 74.666667 19.2 14.933333 23.466667 42.666667 12.8 64-14.933333 25.6-12.8 57.6 2.133334 83.2 14.933333 25.6 40.533333 40.533333 70.4 42.666667 23.466667 0 44.8 19.2 49.066666 42.666666 6.4 38.4 8.533333 78.933333 4.266667 117.333334-2.133333 10.666667-2.133333 21.333333-4.266667 32-4.266667 23.466667-25.6 42.666667-49.066666 42.666666-29.866667 0-55.466667 17.066667-70.4 42.666667-14.933333 25.6-14.933333 55.466667 0 83.2 10.666667 21.333333 6.4 49.066667-12.8 64-38.4 32-81.066667 57.6-130.133334 74.666667-8.533333 2.133333-12.8 2.133333-19.2 2.133333z m-4.266666-64zM512 768c49.066667 0 93.866667 23.466667 121.6 61.866667 34.133333-12.8 66.133333-32 93.866667-53.333334-19.2-44.8-17.066667-93.866667 6.4-136.533333s66.133333-68.266667 115.2-72.533333c2.133333-6.4 2.133333-12.8 2.133333-19.2 2.133333-29.866667 2.133333-59.733333-2.133333-89.6-49.066667-4.266667-91.733333-32-115.2-72.533334-23.466667-42.666667-25.6-91.733333-6.4-136.533333-27.733333-23.466667-59.733333-40.533333-93.866667-53.333333C605.866667 234.666667 561.066667 256 512 256c-49.066667 0-93.866667-23.466667-121.6-61.866667-34.133333 12.8-66.133333 32-93.866667 53.333334 19.2 44.8 17.066667 93.866667-6.4 136.533333s-66.133333 68.266667-115.2 72.533333c-2.133333 6.4-2.133333 12.8-2.133333 19.2-2.133333 29.866667-2.133333 59.733333 2.133333 89.6 49.066667 4.266667 91.733333 32 115.2 72.533334 23.466667 42.666667 25.6 91.733333 6.4 136.533333 27.733333 23.466667 59.733333 40.533333 93.866667 53.333333C418.133333 789.333333 462.933333 768 512 768zM292.266667 241.066667z" p-id="115640"></path></svg>