<?xml version="1.0" standalone="no"?><!DOCTYPE svg PUBLIC "-//W3C//DTD SVG 1.1//EN" "http://www.w3.org/Graphics/SVG/1.1/DTD/svg11.dtd"><svg class="icon" width="32px" height="32.00px" viewBox="0 0 1024 1024" version="1.1" xmlns="http://www.w3.org/2000/svg"><path fill="#000000" d="M230.4 158.72c-40.96 0-71.68 30.72-71.68 71.68v563.2c0 40.96 30.72 71.68 71.68 71.68h563.2c40.96 0 71.68-30.72 71.68-71.68v-563.2c0-40.96-30.72-71.68-71.68-71.68h-563.2z m0-61.44h563.2c71.68 0 133.12 61.44 133.12 133.12v563.2c0 71.68-61.44 133.12-133.12 133.12h-563.2c-71.68 0-133.12-61.44-133.12-133.12v-563.2c0-71.68 61.44-133.12 133.12-133.12z m97.28 256c-15.36 0-30.72-15.36-30.72-30.72s15.36-30.72 30.72-30.72h368.64c15.36 0 30.72 15.36 30.72 30.72s-15.36 30.72-30.72 30.72H327.68z m0 204.8c-15.36 0-30.72-15.36-30.72-30.72s15.36-30.72 30.72-30.72h215.04c15.36 0 30.72 15.36 30.72 30.72s-15.36 30.72-30.72 30.72H327.68z m0 204.8c-15.36 0-30.72-15.36-30.72-30.72s15.36-30.72 30.72-30.72h317.44c15.36 0 30.72 15.36 30.72 30.72s-15.36 30.72-30.72 30.72H327.68z"  /></svg>