<?xml version="1.0" standalone="no"?><!DOCTYPE svg PUBLIC "-//W3C//DTD SVG 1.1//EN" "http://www.w3.org/Graphics/SVG/1.1/DTD/svg11.dtd"><svg class="icon" width="32px" height="32.00px" viewBox="0 0 1024 1024" version="1.1" xmlns="http://www.w3.org/2000/svg"><path fill="#000000" d="M774.4929184 984.4887701333332L249.5070816 984.4887701333332c-86.84278506666666 0-157.4912-70.64841493333333-157.4912-157.4912L92.0158816 197.0100149333333c0-86.85037013333334 70.64841493333333-157.49878506666667 157.4912-157.49878506666667l26.2523264 0c14.510459733333333 0 26.244740266666668 11.749451733333332 26.244740266666668 26.2523264 0 14.495288533333333-11.741866666666665 26.244740266666668-26.244740266666668 26.244740266666668l-26.2523264 0c-57.8977184 0-104.99413333333334 47.104-104.99413333333334 105.0017184l0 629.9799701333334c0 57.8977184 47.0812448 104.99413333333334 104.99413333333334 104.99413333333334l524.9858368 0c57.8977184 0 104.99413333333334-47.0812448 104.99413333333334-104.99413333333334L879.4870517333333 197.0100149333333c0-57.8977184-47.0812448-105.0017184-104.99413333333334-105.0017184l-26.2523264 0c-14.510459733333333 0-26.244740266666668-11.749451733333332-26.244740266666668-26.2523264 0-14.495288533333333 11.741866666666665-26.244740266666668 26.244740266666668-26.244740266666668l26.2523264 0c86.84278506666666 0 157.4912 70.64841493333333 157.4912 157.4912l0 629.9799701333334C931.9841183999999 913.8403552 861.3357034666667 984.4887701333332 774.4929184 984.4887701333332L774.4929184 984.4887701333332zM774.4929184 984.4887701333332M636.6776885333333 92.0158816L387.3147264 92.0158816c-14.510459733333333 0-26.2523264-11.749451733333332-26.2523264-26.244740266666668 0-14.495288533333333 11.741866666666665-26.2523264 26.2523264-26.2523264l249.3629632 0c14.510459733333333 0 26.2523264 11.749451733333332 26.2523264 26.2523264C662.9376 80.26642986666667 651.1881482666666 92.0158816 636.6776885333333 92.0158816L636.6776885333333 92.0158816zM636.6776885333333 92.0158816M777.7697184000001 366.5389034666667L246.2302816 366.5389034666667c-14.518044799999998 0-26.2523264-11.749451733333332-26.2523264-26.244740266666668 0-14.495288533333333 11.741866666666665-26.2523264 26.2523264-26.2523264l531.5394368 0c14.510459733333333 0 26.2523264 11.749451733333332 26.2523264 26.2523264C804.0220448 354.78945173333335 792.2801781333333 366.5389034666667 777.7697184000001 366.5389034666667L777.7697184000001 366.5389034666667zM777.7697184000001 366.5389034666667M777.7697184000001 538.2523263999999L246.2302816 538.2523263999999c-14.518044799999998 0-26.2523264-11.749451733333332-26.2523264-26.244740266666668 0-14.495288533333333 11.741866666666665-26.2523264 26.2523264-26.2523264l531.5394368 0c14.510459733333333 0 26.2523264 11.749451733333332 26.2523264 26.2523264C804.0220448 526.5028736 792.2801781333333 538.2523263999999 777.7697184000001 538.2523263999999L777.7697184000001 538.2523263999999zM777.7697184000001 538.2523263999999M777.7697184000001 709.9733333333334L246.2302816 709.9733333333334c-14.518044799999998 0-26.2523264-11.741866666666665-26.2523264-26.2523264 0-14.510459733333333 11.741866666666665-26.244740266666668 26.2523264-26.244740266666668l531.5394368 0c14.510459733333333 0 26.2523264 11.741866666666665 26.2523264 26.244740266666668C804.0220448 698.2314666666666 792.2801781333333 709.9733333333334 777.7697184000001 709.9733333333334L777.7697184000001 709.9733333333334zM777.7697184000001 709.9733333333334" /></svg>