<?xml version="1.0" standalone="no"?><!DOCTYPE svg PUBLIC "-//W3C//DTD SVG 1.1//EN" "http://www.w3.org/Graphics/SVG/1.1/DTD/svg11.dtd"><svg class="icon" width="32px" height="32.00px" viewBox="0 0 1024 1024" version="1.1" xmlns="http://www.w3.org/2000/svg"><path fill="#000000" d="M895.845 268.098h-78.708c2.346-8.748 3.662-17.829 3.662-27.129 0-27.829-10.841-53.993-30.517-73.669-19.681-19.68-45.845-30.522-73.678-30.522-26.864 0-52.177 10.102-71.606 28.507l-136.316 90.92-136.316-90.92c-19.428-18.405-44.742-28.507-71.606-28.507-27.834 0-53.998 10.841-73.674 30.517-19.681 19.681-30.522 45.845-30.522 73.674 0 9.301 1.316 18.381 3.662 27.13h-78.708c-35.008 0-63.488 28.48-63.488 63.487v91.902c0 34.785 28.126 63.096 62.828 63.455-0.366 2.735-0.62 5.504-0.62 8.337v366.092c0 34.587 28.135 62.722 62.722 62.722h651.443c34.587 0 62.722-28.135 62.722-62.722V495.28c0-2.833-0.254-5.602-0.62-8.337 34.702-0.359 62.828-28.669 62.828-63.455v-91.902c0-35.007-28.48-63.487-63.488-63.487zM679.509 207.68l1.904-1.904c9.397-9.402 21.895-14.579 35.189-14.579 13.299 0 25.796 5.177 35.198 14.583 9.402 9.397 14.579 21.895 14.579 35.19a49.384 49.384 0 0 1-8.083 27.128h-169.38l90.593-60.418z m-428.526 33.29c0-13.296 5.177-25.793 14.583-35.195 9.397-9.402 21.895-14.579 35.194-14.579 13.295 0 25.792 5.177 35.189 14.58l1.904 1.903 90.591 60.42h-169.38a49.399 49.399 0 0 1-8.081-27.13zM112.448 423.486v-91.902c0-5 4.07-9.07 9.07-9.07h123.79c0.34 0.013 0.675 0.097 1.016 0.097 0.34 0 0.676-0.085 1.016-0.097h234.203v110.041H121.518c-5 0.001-9.07-4.069-9.07-9.069z m62.209 437.885V495.28c0-4.499 3.804-8.304 8.304-8.304h298.583v382.7H182.96c-4.499 0-8.303-3.804-8.303-8.303z m668.05 0c0 4.5-3.804 8.304-8.304 8.304H535.962v-382.7h298.442c4.499 0 8.304 3.804 8.304 8.304v366.092z m62.208-437.885c0 5-4.07 9.07-9.07 9.07H535.962v-110.04h234.061c0.34 0.012 0.676 0.096 1.016 0.096s0.676-0.085 1.016-0.097h123.79c5 0 9.07 4.07 9.07 9.07v91.901z"  /></svg>