<?xml version="1.0" standalone="no"?><!DOCTYPE svg PUBLIC "-//W3C//DTD SVG 1.1//EN" "http://www.w3.org/Graphics/SVG/1.1/DTD/svg11.dtd"><svg class="icon" width="32px" height="32.00px" viewBox="0 0 1024 1024" version="1.1" xmlns="http://www.w3.org/2000/svg"><path fill="#000000" d="M998.424072 30.907543l-2.527412-21.663533L974.413657 5.452892a503.496612 503.496612 0 0 0-78.530307-5.415883 507.46826 507.46826 0 0 0-208.511505 42.063359c-57.769421 26.718357-108.317665 89.181544-151.464202 185.584266q-9.74859 22.205121-18.052944 44.771302a411.246067 411.246067 0 0 0-33.578476-80.335602A312.496463 312.496463 0 0 0 384.623972 82.177904 467.029665 467.029665 0 0 0 124.300517 1.661774a337.770585 337.770585 0 0 0-77.62766 7.943295L26.634089 14.659893 24.648266 35.24025A528.048616 528.048616 0 0 0 31.869443 162.513506a445.90772 445.90772 0 0 0 34.842182 113.372489 318.453935 318.453935 0 0 0 81.05772 108.317665 481.47202 481.47202 0 0 0 151.103142 90.26472 377.306532 377.306532 0 0 0 126.370609 22.024592 595.747157 595.747157 0 0 0 74.919718-6.138001v83.585132h-288.847106V926.153043a97.846957 97.846957 0 0 0 97.846957 97.846957h453.489957a97.846957 97.846957 0 0 0 97.846957-97.846957V572.676397h-306.90005v-169.156087a608.203688 608.203688 0 0 0 106.51237 9.56806c112.830901 0 199.846092-33.759006 258.879219-100.554898 99.110663-112.108783 80.335601-274.76581 79.432954-281.625929zM798.036392 927.05569a38.994359 38.994359 0 0 1-38.994359 38.6333H303.927311a38.994359 38.994359 0 0 1-38.994359-38.6333V626.835229H798.036392v300.220461zM424.520978 436.557198c-82.682484 0-162.476497-32.675829-238.659921-97.305369a259.781866 259.781866 0 0 1-65.532188-87.556779 385.791416 385.791416 0 0 1-30.328946-97.846957 503.677141 503.677141 0 0 1-7.582236-90.264721 343.005939 343.005939 0 0 1 41.88283-2.527412 408.538126 408.538126 0 0 1 227.286567 69.864894 254.185453 254.185453 0 0 1 80.69666 89.001014A376.042826 376.042826 0 0 1 470.555986 324.990003a517.03632 517.03632 0 0 1 10.831766 105.429194 302.206285 302.206285 0 0 1-56.866774 5.415883z m450.240427-162.476497c-47.298714 54.158832-119.51049 80.516131-214.649506 80.51613a645.392753 645.392753 0 0 1-105.068135-9.387531 833.323901 833.323901 0 0 1 34.842182-94.236368c36.105888-81.418778 78.349778-135.216552 122.037903-155.25532a448.615662 448.615662 0 0 1 183.959501-36.105888c18.052944 0 33.939535 0.902647 45.493419 1.985824 0.902647 44.049184-4.693765 143.159847-66.615364 213.024741z"  /><path fill="#000000" d="M264.752423 680.994061h541.588324v54.158833h-541.588324z"  /></svg>