<?xml version="1.0" standalone="no"?><!DOCTYPE svg PUBLIC "-//W3C//DTD SVG 1.1//EN" "http://www.w3.org/Graphics/SVG/1.1/DTD/svg11.dtd"><svg class="icon" width="32px" height="32.00px" viewBox="0 0 1024 1024" version="1.1" xmlns="http://www.w3.org/2000/svg"><path fill="#000000" d="M929.5 187.4h-835c-16.9 0-30.5-13.7-30.5-30.5s13.7-30.5 30.5-30.5h834.9c16.9 0 30.5 13.7 30.5 30.5s-13.6 30.5-30.4 30.5zM783.3 769.5H240.8c-42.7 0-77.4-34.7-77.4-77.4V156.8c0-16.9 13.7-30.5 30.5-30.5H830c16.9 0 30.5 13.7 30.5 30.5v535.3c0.1 42.7-34.6 77.4-77.2 77.4zM224.5 187.4v504.8c0 9 7.3 16.3 16.3 16.3h542.5c9 0 16.3-7.3 16.3-16.3V187.4H224.5zM317.8 897.7c-7.8 0-15.7-3-21.6-9-11.9-12-11.9-31.3 0.1-43.2l128.8-128.2c11.9-11.9 31.3-11.9 43.2 0.1 11.9 12 11.9 31.3-0.1 43.2L339.4 888.8c-6 6-13.8 8.9-21.6 8.9zM706.2 897.7c-7.8 0-15.6-3-21.5-8.9L555.8 760.6c-12-11.9-12-31.2-0.1-43.2 11.9-12 31.3-12 43.2-0.1l128.8 128.2c12 11.9 12 31.2 0.1 43.2-6 6-13.8 9-21.6 9zM545.4 560.7c-7.8 0-15.6-3-21.5-8.9L403.2 431.7l-111.7 111c-11.9 11.9-31.3 11.9-43.2-0.1-11.9-12-11.9-31.3 0.1-43.2l133.1-132.6c11.9-11.9 31.2-11.9 43.1 0L545.3 487l193.2-192.3c11.9-11.9 31.3-11.9 43.2 0.1 11.9 12 11.9 31.3-0.1 43.2L567 551.8c-6 6-13.8 8.9-21.6 8.9z" /></svg>