<?xml version="1.0" standalone="no"?><!DOCTYPE svg PUBLIC "-//W3C//DTD SVG 1.1//EN" "http://www.w3.org/Graphics/SVG/1.1/DTD/svg11.dtd"><svg class="icon" width="32px" height="32.00px" viewBox="0 0 1024 1024" version="1.1" xmlns="http://www.w3.org/2000/svg"><path fill="#000000" d="M989.866667 1017.173333c-13.653333 0-27.306667-10.24-27.306667-27.306666 0-232.106667-201.386667-416.426667-450.56-416.426667S61.44 757.76 61.44 989.866667c0 13.653333-10.24 27.306667-27.306667 27.306666s-27.306667-13.653333-27.306666-27.306666c0-259.413333 225.28-471.04 505.173333-471.04 276.48 0 505.173333 211.626667 505.173333 471.04 0 13.653333-13.653333 27.306667-27.306666 27.306666zM512 471.04c-126.293333 0-232.106667-102.4-232.106667-232.106667S382.293333 6.826667 512 6.826667c126.293333 0 232.106667 102.4 232.106667 232.106666s-105.813333 232.106667-232.106667 232.106667z m0-409.6c-98.986667 0-177.493333 81.92-177.493333 177.493333s81.92 177.493333 177.493333 177.493334c98.986667 0 177.493333-81.92 177.493333-177.493334S610.986667 61.44 512 61.44zM515.413333 979.626667c-6.826667 0-13.653333-3.413333-20.48-10.24l-81.92-102.4c-3.413333-6.826667-6.826667-13.653333-6.826666-20.48l30.72-201.386667c3.413333-13.653333 13.653333-20.48 23.893333-20.48h95.573333c13.653333 0 23.893333 10.24 23.893334 20.48l37.546666 201.386667c0 6.826667 0 13.653333-6.826666 20.48l-81.92 102.4c3.413333 6.826667-6.826667 10.24-13.653334 10.24z m-54.613333-136.533334l54.613333 68.266667 54.613334-68.266667-30.72-167.253333h-54.613334l-23.893333 167.253333z" /></svg>