<?xml version="1.0" standalone="no"?><!DOCTYPE svg PUBLIC "-//W3C//DTD SVG 1.1//EN" "http://www.w3.org/Graphics/SVG/1.1/DTD/svg11.dtd"><svg class="icon" width="32px" height="32.00px" viewBox="0 0 1024 1024" version="1.1" xmlns="http://www.w3.org/2000/svg"><path fill="#000000" d="M988.088 886.064H954.08v-476.08c0-74.808-61.208-136.024-136.024-136.024H614.024v-68.008c0-74.816-61.208-136.024-136.024-136.024H205.952c-74.816 0-136.024 61.208-136.024 136.024v680.12H35.92c-19.048 0-34.008 14.96-34.008 34.008s14.96 34.008 34.008 34.008h952.168c19.048 0 34.008-14.96 34.008-34.008s-14.96-34.016-34.008-34.016zM546.008 273.96v612.104H137.936v-680.12c0-37.408 30.608-68.008 68.008-68.008H478c37.408 0 68.008 30.608 68.008 68.008v68.016z m340.064 612.104H614.024V341.968h204.032c37.416 0 68.016 30.608 68.016 68.008v476.088zM443.992 273.96H239.96a33.68 33.68 0 0 0-34.008 34.008c0 19.04 14.96 34 34.008 34h204.032c19.048 0 34-14.96 34-34a33.664 33.664 0 0 0-34-34.008z m0 204.032H239.96c-19.048 0-34.008 14.96-34.008 34.008s14.96 34.008 34.008 34.008h204.032c19.048 0 34-14.96 34-34.008s-14.952-34.008-34-34.008z m0 204.04H239.96a33.68 33.68 0 0 0-34.008 34.008c0 19.04 14.96 34 34.008 34h204.032c19.048 0 34-14.96 34-34a33.664 33.664 0 0 0-34-34.008z m340.064-204.04H716.04c-19.048 0-34.008 14.96-34.008 34.008s14.96 34.008 34.008 34.008h68.016c19.04 0 34-14.96 34-34.008s-14.96-34.008-34-34.008z m0 204.04H716.04a33.68 33.68 0 0 0-34.008 34.008c0 19.04 14.96 34 34.008 34h68.016c19.04 0 34-14.96 34-34a33.672 33.672 0 0 0-34-34.008z"  /></svg>